{"title":"Wreck it Ralph 2012 TS READNFO x264 AAC-UNiQUE ","uid":7820938,"size":1588101033,"categoryP":"video","categoryS":"movies","magnet":"?xt=urn:btih:f69f7fa98c571f15f1f70f4b40a9cc5eeeaa4373&amp;dn=Wreck+it+Ralph+2012+TS+READNFO+x264+AAC-UNiQUE+&amp;tr=udp%3A%2F%2Ftracker.openbittorrent.com%3A80&amp;tr=udp%3A%2F%2Fopen.demonii.com%3A1337&amp;tr=udp%3A%2F%2Ftracker.coppersurfer.tk%3A6969&amp;tr=udp%3A%2F%2Fexodus.desync.com%3A6969","seeders":16,"leechers":0,"uploader":"Acesn8s","files":-1,"time":1352818514,"description":"General\nComplete name : Wreck it Ralph 2012 TS READNFO x264 AAC-UNiQUE\nFormat : MPEG-4\nFormat profile : Base Media\nCodec ID : isom\nFile size : 1.45 GiB\nDuration : 1h 33mn\nOverall bit rate mode : Variable\nOverall bit rate : 2 213 Kbps\nEncoded date : UTC 2012-11-13 12:26:27\n\nVideo\nID : 1\nFormat : AVC\nFormat/Info : Advanced Video Codec\nFormat profile : &lt;a class=&quot;__cf_email__&quot; href=&quot;/cdn-cgi/l/email-protection&quot; data-cfemail=&quot;c189a8a6a9818df5eff0&quot;&gt;[email&amp;#160;protected]&lt;/a&gt;&lt;script cf-hash='f9e31' type=&quot;text/javascript&quot;&gt;\n/* &lt;![CDATA[ */!function(){try{var t=&quot;currentScript&quot;in document?document.currentScript:function(){for(var t=document.getElementsByTagName(&quot;script&quot;),e=t.length;e--;)if(t[e].getAttribute(&quot;cf-hash&quot;))return t[e]}();if(t&amp;&amp;t.previousSibling){var e,r,n,i,c=t.previousSibling,a=c.getAttribute(&quot;data-cfemail&quot;);if(a){for(e=&quot;&quot;,r=parseInt(a.substr(0,2),16),n=2;a.length-n;n+=2)i=parseInt(a.substr(n,2),16)^r,e+=String.fromCharCode(i);e=document.createTextNode(e),c.parentNode.replaceChild(e,c)}}}catch(u){}}();/* ]]&gt; */&lt;/script&gt;\nFormat settings, CABAC : Yes\nFormat settings, ReFrames : 3 frames\nCodec ID : avc1\nCodec ID/Info : Advanced Video Coding\nDuration : 1h 33mn\nBit rate mode : Variable\nBit rate : 2 099 Kbps\nMaximum bit rate : 40.0 Mbps\nWidth : 720 pixels\nHeight : 304 pixels\nDisplay aspect ratio : 2.35:1\nFrame rate mode : Constant\nFrame rate : 24.000 fps\nColor space : YUV\nChroma subsampling : 4:2:0\nBit depth : 8 bits\nScan type : Progressive\nBits/(Pixel*Frame) : 0.400\nStream size : 1.38 GiB (95%)\nWriting library : x264 core 129 r2230 1cffe9f\n\nAudio\nID : 2\nFormat : AAC\nFormat/Info : Advanced Audio Codec\nFormat profile : LC\nCodec ID : 40\nDuration : 1h 32mn\nBit rate mode : Variable\nBit rate : 112 Kbps\nMaximum bit rate : 169 Kbps\nChannel(s) : 2 channels\nChannel positions : Front: L R\nSampling rate : 44.1 KHz\nCompression mode : Lossy\nStream size : 74.3 MiB (5%)\nLanguage : English\nEncoded date : UTC 2012-11-13 12:28:19\n\nSources : Video - TommyCook - Thanks!\n: Audio - JiiNX - Thanks!\n\nStoryline\nA video game villain wants to be a hero and sets out to fulfill his dream, but his quest brings havoc to the whole arcade where he lives.\n\niMDB: http://uk.imdb.com/title/tt1772341/\n\nScreens\n &lt;a href=&quot;\nhttp://www.shotpix.com/images/29264364691139484222.png&quot; rel=&quot;nofollow&quot; target=&quot;_NEW&quot;&gt;\nhttp://www.shotpix.com/images/29264364691139484222.png&lt;/a&gt; &lt;a href=&quot;\nhttp://www.shotpix.com/images/41854352828570943359.png&quot; rel=&quot;nofollow&quot; target=&quot;_NEW&quot;&gt;\nhttp://www.shotpix.com/images/41854352828570943359.png&lt;/a&gt; &lt;a href=&quot;\nhttp://www.shotpix.com/images/95981364887698580071.png&quot; rel=&quot;nofollow&quot; target=&quot;_NEW&quot;&gt;\nhttp://www.shotpix.com/images/95981364887698580071.png&lt;/a&gt; &lt;a href=&quot;\nhttp://www.shotpix.com/images/41445739288400278694.png&quot; rel=&quot;nofollow&quot; target=&quot;_NEW&quot;&gt;\nhttp://www.shotpix.com/images/41445739288400278694.png&lt;/a&gt; &lt;a href=&quot;\nhttp://www.shotpix.com/images/32550732302182003532.png&quot; rel=&quot;nofollow&quot; target=&quot;_NEW&quot;&gt;\nhttp://www.shotpix.com/images/32550732302182003532.png&lt;/a&gt; &lt;a href=&quot;\nhttp://www.shotpix.com/images/05349623584954379370.png&quot; rel=&quot;nofollow&quot; target=&quot;_NEW&quot;&gt;\nhttp://www.shotpix.com/images/05349623584954379370.png&lt;/a&gt;\n","torrent":{"xt":"urn:btih:f69f7fa98c571f15f1f70f4b40a9cc5eeeaa4373","amp;dn":"Wreck+it+Ralph+2012+TS+READNFO+x264+AAC-UNiQUE+","amp;tr":["udp%3A%2F%2Ftracker.openbittorrent.com%3A80","udp%3A%2F%2Fopen.demonii.com%3A1337","udp%3A%2F%2Ftracker.coppersurfer.tk%3A6969","udp%3A%2F%2Fexodus.desync.com%3A6969"],"infoHash":"f69f7fa98c571f15f1f70f4b40a9cc5eeeaa4373","infoHashBuffer":{"type":"Buffer","data":[246,159,127,169,140,87,31,21,241,247,15,75,64,169,204,94,238,170,67,115]},"announce":[],"urlList":[]}}